<?xml version="1.0" encoding="UTF-8"?>
<svg id="objects" xmlns="http://www.w3.org/2000/svg" viewBox="0 0 632 355.5">
  <defs>
    <style>
      .cls-1 {
        fill: #393939;
      }

      .cls-2 {
        fill: #707d98;
      }

      .cls-3 {
        fill: #d32027;
      }

      .cls-4 {
        fill: #485c79;
      }

      .cls-5 {
        fill: #d5d5d5;
      }
    </style>
  </defs>
  <rect x=".5" y="315.25" width="633" height="26.23"/>
  <rect x=".5" y="343.09" width="633" height="13.29"/>
  <path class="cls-3" d="M318.39,135.67s86.94,.51,107.69,20.81c20.74,20.3,37.96,46.78,41.04,50.31,3.09,3.53,1.77,9.71,5.3,13.68,3.53,3.97,22.51,29.57,24.27,33.54,1.76,3.97,15.89,15.01,18.98,22.07s7.5,33.54,3.53,38.84-9.71,13.24-30.45,13.24-44.13-34.42-49.43-39.72c-5.3-5.3-15.89-12.36-17.65-18.54-1.77-6.18-3.97-13.24-8.39-18.54,0,0,1.77,19.86,2.65,24.71,.88,4.85,1.77,23.83-2.21,30.45-3.97,6.62-12.74,9.34-12.74,14.2s-163.66,.42-163.66,.42l-14.26-74.2s-25.6,26.92-27.36,30.01c-1.77,3.09-10.59,43.25-25.16,52.08s-55.61,2.65-60.02-10.15c-4.41-12.8-1.32-37.07,5.3-47.22,6.62-10.15,13.24-10.59,15.45-14.56,2.21-3.97,8.83-12.87,11.03-16.81,2.21-3.94,5.3-11.88,10.15-14.53s8.39-.44,11.92-4.85c3.53-4.41,3.53-14.12,11.47-24.72s19.86-25.16,25.6-29.13c5.74-3.97,10.59-15.45,18.98-19.42s43.59-7.65,55.78-9.78c12.19-2.13,42.2-2.2,42.2-2.2Z"/>
  <path class="cls-3" d="M274.24,158.78s33.95,44.29,41.96,44.29,28.6-27.53,35.86-36.33l-45.61-15.13-32.21,7.17Z"/>
  <path class="cls-3" d="M216.99,171.41c-5.95-8.93,7.44,18.6,0,45.38l-11.46,2.34s-6.24-3.47-7.46-2.43,.17,6.24-11.62,2.43c-11.79-3.81-3.12,1.91,1.91,5.2,5.03,3.29,14.39,9.54,16.13,11.44s-12.49-3.29-15.61-2.43c-3.12,.87,15.95,13.18,16.47,16.13,.52,2.95-30.17-4.51-33.47-3.64s12.14,9.71,13.7,11.62-5.03,4.16-9.02,5.03c-3.99,.87-13.18-.52-13.35,1.21s6.59,7.46,5.9,9.02c-.69,1.56-27.61-14.7-48.48,1.5l13.11,17.41,53.79,10.28c4.47-11.91,7.25-23.33,8.16-24.92,1.76-3.09,27.36-30.01,27.36-30.01l2.86-36.15s-2.98-30.48-8.93-39.41Z"/>
  <path class="cls-4" d="M504.65,277.05c.08,.09,.17,.19,.25,.29-.08-.09-.17-.19-.25-.29Z"/>
  <path class="cls-4" d="M504.27,276.62c.13,.15,.25,.29,.37,.43-.13-.15-.26-.29-.37-.43Z"/>
  <path class="cls-4" d="M504.9,277.34s.04,.05,.07,.07c-.02-.03-.04-.05-.07-.07Z"/>
  <path class="cls-4" d="M505.68,278.25c.1,.11,.19,.21,.28,.32-.09-.11-.18-.21-.28-.32Z"/>
  <path class="cls-4" d="M504.96,277.42l.72,.83c-.22-.26-.46-.53-.72-.83Z"/>
  <path class="cls-4" d="M505.96,278.56s.02,.02,.03,.03c0-.01-.02-.02-.03-.03Z"/>
  <path class="cls-4" d="M503.94,276.24c.1,.12,.21,.25,.33,.38-.11-.12-.22-.25-.33-.38Z"/>
  <path class="cls-4" d="M503.57,275.81l.03,.03s-.02-.02-.03-.03Z"/>
  <path class="cls-3" d="M463.47,267.58c-2.63-3.04-11.95-5.27-15.19-7.9-3.24-2.63,1.22-8.91-.81-10.13s-19.85,3.44-21.76-1.69c-.94-2.53,12.06-24.33,9.26-23.9s-14.42,6.89-15.07,4.52c-.65-2.37,23.68-23.25,22.61-25.4s-26.26,11.41-26.88,9.78c-4.7-12.34,2.9-45.54,0-38.51-11.14,27.05-12.07,91.47-12.07,91.47,0,7.49,2,7.51-1.85,8.38-7.06,1.59-1.01,27.4-1.01,27.4l14.47,1.35c2.28-8.25,1.52-22.71,.77-26.86-.88-4.85-2.65-24.71-2.65-24.71,4.41,5.3,6.62,12.36,8.39,18.54s12.36,13.24,17.65,18.54c1.8,1.8,5.69,6.96,10.85,13l53.05-26.04c-11.49-13.24-37.11-4.78-39.75-7.82Z"/>
  <path class="cls-4" d="M503.66,275.92c.09,.11,.19,.21,.28,.32-.1-.12-.19-.22-.28-.32Z"/>
  <path class="cls-4" d="M503.22,275.41s0,0,.01,.01c0,0,0,0-.01-.01Z"/>
  <path class="cls-4" d="M503.22,275.41h0s0,0,0,0Z"/>
  <path class="cls-4" d="M503.23,275.42s.01,.02,.02,.02l-.02-.02Z"/>
  <path class="cls-4" d="M505.99,278.6c.07,.08,.15,.17,.22,.25-.07-.08-.14-.17-.22-.25Z"/>
  <path class="cls-4" d="M503.25,275.45c.05,.06,.16,.19,.31,.36-.1-.12-.21-.24-.31-.36Z"/>
  <path class="cls-4" d="M503.6,275.84s.04,.05,.07,.08c-.02-.03-.04-.05-.07-.08Z"/>
  <path class="cls-4" d="M507.85,280.74c.15,.18,.27,.32,.36,.41-.08-.09-.19-.22-.36-.41Z"/>
  <path class="cls-4" d="M508.2,281.15s.07,.09,.09,.11c-.02-.02-.05-.06-.09-.11Z"/>
  <path class="cls-4" d="M507.64,280.5c.08,.09,.14,.17,.21,.24-.06-.07-.13-.15-.21-.24Z"/>
  <path class="cls-4" d="M507.5,280.33c.05,.06,.1,.11,.14,.17-.05-.05-.09-.11-.14-.17Z"/>
  <path class="cls-4" d="M506.2,278.85s.08,.09,.12,.13c-.04-.04-.08-.09-.12-.13Z"/>
  <path class="cls-4" d="M508.3,281.26v.02s0-.02,0-.02Z"/>
  <path class="cls-4" d="M508.3,281.26h0s0,0,0,0Z"/>
  <path class="cls-4" d="M506.43,279.11c.14,.16,.27,.31,.4,.47-.13-.14-.26-.3-.4-.47Z"/>
  <path class="cls-4" d="M506.84,279.58s.05,.06,.08,.09c-.03-.03-.05-.06-.08-.09Z"/>
  <path class="cls-4" d="M506.32,278.98s.08,.09,.11,.13c-.04-.04-.08-.09-.11-.13Z"/>
  <path class="cls-4" d="M507.08,279.86s.07,.08,.11,.13c-.04-.04-.07-.08-.11-.13Z"/>
  <path class="cls-4" d="M507.19,279.98c.08,.1,.16,.19,.24,.28-.08-.09-.16-.18-.24-.28Z"/>
  <path class="cls-4" d="M507.43,280.26s.04,.05,.07,.07c-.02-.02-.04-.05-.07-.07Z"/>
  <path class="cls-4" d="M506.91,279.66c.06,.07,.11,.13,.17,.19-.05-.06-.11-.13-.17-.19Z"/>
  <path class="cls-3" d="M384.15,114.45s-17.1-40.68-21.09-48.66-11.7-30.59-27.13-40.17c-15.43-9.58-18.42-10.37-22.11-10.37s-23.11,14.1-28.96,19.95c-5.85,5.85-16.76,29.26-21.01,33.78s-21.72,34.12-21.72,45.65l71.01,9.67,71.02-9.86Z"/>
  <path class="cls-3" d="M313.82,15.25c-3.69,0-23.11,14.1-28.96,19.95-5.85,5.85-16.76,29.26-21.01,33.78-3.13,3.32-13.4,20.2-18.62,33.48h0s14.34-14.84,26.53-18.14c12.19-3.3-4.26-4.51-5.18-4.51s6.39-18.9,12.19-25.6c5.79-6.7,22.25-10.97,25.9-12.5s-4.57-5.18-4.57-9.45,1.54-11.8,13.72-17.02Z"/>
  <path class="cls-2" d="M315.83,15.38c.78,.14,1.54,.32,2.3,.55-.75-.25-1.52-.44-2.3-.55Z"/>
  <path class="cls-3" d="M363.07,65.79c-3.99-7.98-11.7-30.59-27.13-40.17-4.64-2.88-8.16-4.97-10.91-6.48,11.98,7.35,23.4,22.66,25.51,27.17,2.7,5.78,15.03,33.82,12.97,33.82-7.07,0-28-4.34-15.57,0s31.15,22.33,31.15,22.33c-5.37-12.67-13.44-31.51-16.02-36.68Z"/>
  <path d="M312.24,84.33c18.55,0,73.28,16.74,73.28,35.29s-18.77,33.83-27.36,41.52-26.12,25.89-41.96,25.89-42.41-27.59-49.2-36.64c-6.79-9.05-24.88-23.98-24.88-35.74s46.59-30.31,70.12-30.31Z"/>
  <path d="M340.38,89.62l-4.07,2.87-5,29.3,10,41.13c29.6-27.36,16.69-53.3,25.23-54.89,15.11-2.81,18.6,16.28,18.6,16.28h0c.26-1.55,.39-3.12,.4-4.7,0-12.2-23.66-23.61-45.14-29.99Z"/>
  <path d="M265.58,105.25c3.45,2.03,6.09,28.83,14.61,39.63l9.75-25.82,1.1-31.57c-22.95,5.8-48.92,18.37-48.92,27.15,8.36-10.76,18.48-12.31,23.46-9.38Z"/>
  <path class="cls-5" d="M276.61,91.89c-1.59,7.53-2.39,15.21-2.36,22.9,0,37.12,25.27,63.07,41.96,63.07s41.96-25.95,41.96-63.07c.01-6.54-.56-13.08-1.7-19.52-16.15-6.65-34.83-10.94-44.22-10.94-9.61,0-23.07,3.1-35.63,7.56Z"/>
  <path class="cls-3" d="M492.42,271.98c-12.1,0-28.24,7.61-36.04,10.56-7.8,2.96-11.03,.27-14.79,1.34s-11.03,8.54-18.02,8.61c-6.99,.07-24.48,3.5-32.55,6.19s-6.99,28.24-6.99,28.24c0,0,26.36,.54,33.89,0,7.53-.54,9.95-1.61,11.83-1.61s4.84,1.55,9.41,1.85,18.84-6.34,24.48-6.69,35.66,5.96,52.12-1.32l.14-23.07s-5.46-24.09-23.48-24.09Z"/>
  <path class="cls-3" d="M515.76,319.14h0c1.23-1.34,2.37-2.74,3.43-4.22,1.52-2.02,1.81-7.13,1.42-13.07-.28,5.59-3.76,7.07-4.77,3.21s-7.25-11.43-8.53-10.25,5.15,19.21,3.57,19.21-1.93-3.87-2.85-5.28c-.92-1.41-2.25,1.76-3.56,.7s-6.24-6.86-7.12-6.51,5.8,13.89,1.23,15.13c-4.57,1.23-27.61-4.22-31.3-4.22s-13.4,5.29-15.69,5.29-.24-5.38-4.99-9.54c-1.18-1.04,2.02,7.48-2.8,14.7-.6,.92-1.29,1.79-2.05,2.58,5.99-1.24,17.08-6.12,21.9-6.42,5.64-.35,35.66,5.96,52.12-1.32Z"/>
  <path d="M404.69,295.21s9.72-.87,14.9,0c5.18,.87,16.85,5.5,20.73,12.72,3.89,7.22,1.37,13.94-.93,16.48-2.3,2.54-5.55-1.3-10.37-1.48s-23.32,4.14-29.06,2.35-9.07-19.19-9.07-19.19l13.79-10.87Z"/>
  <path class="cls-5" d="M440.32,307.92c-3.29-6.12-12.17-10.37-17.96-12.06-2.14,.54-4.33,.99-6.07,.48-3.34-.98-11.61-1.13-11.61-1.13l-13.79-.39s1.27,27.53,6.33,28.31c5.07,.78,13.12,4.01,19.39,4.04s11.92-5.18,11.92-5.18l11.37,1.77c2.12-2.9,4.01-9.16,.41-15.84Z"/>
  <path class="cls-5" d="M416.62,327.17c4.59,.02,8.84-2.76,10.8-4.26l-1.1-2.64c-5.69,3.48-13.71,.08-16.38,0-1.83-.05-5.23,2.16-8.44,3.8,4.7,1.24,10.42,3.07,15.13,3.09Z"/>
  <path class="cls-5" d="M422.37,295.86c-2.14,.54-4.33,.99-6.07,.48-1.86-.54-5.24-.83-7.88-.98,11.44,2.07,19.48,6.79,19.88,16.54s-6.11,12.7-10.83,15.25h0c5.93-.4,11.08-5.15,11.08-5.15l11.37,1.77c2.12-2.9,4.01-9.16,.41-15.84-3.29-6.12-12.17-10.37-17.96-12.06Z"/>
  <path class="cls-5" d="M440.32,307.92c-.21-.39-.44-.77-.69-1.14,0,0,1.86,7.6-3.54,11.46-3.2,2.29-5.32,.89-5.88,1.45s-1.07,1.78-1.67,2.29l11.37,1.77c2.12-2.9,4.01-9.16,.41-15.84Z"/>
  <path class="cls-3" d="M206.16,293.23c-6.42-1.48-15.7,.28-18.52,0-2.83-.28-1.48-3.21-2.96-3.7-1.48-.49-5.68-.74-11.36-4.45-5.68-3.7-24.2-15.8-33.58-15.8s-24.2,6.42-27.43,9.96h0c-3.89,11.37-5.22,28.09-2.17,38.47,3.9,3.33,8.58,3.22,11.82,3.68,5.19,.74,19.76,1.23,22.72,1.23s10.62,3.21,15.99,4.22,7.97-1.75,10.19-1.75,5.19,1.98,9.38,1.73c4.2-.25,10.12-2.47,13.34-2.47h12.59s6.42-29.63,0-31.11Z"/>
  <path class="cls-3" d="M164.7,326.92c-2.43-.35-6.45-4.68-4.55-10.17s-2.64,4.89-4.12,5.09-11.2-3.4-12.68-5.3-1.27-7.18-2.01-7.61-6.23,11.12-8.56,10.67c-2.32-.46-4.44-1.37-4.65-2.43-.21-1.06,8.45-12.78,7.61-13.52s-17.32,12.18-19.86,11.63c-2.54-.54,4.44-20.09,3.8-21.35s-6.97,10.56-8.13,12.36,.32-6.97,1.06-8.77,8.13-12.89,7.29-13.63c-.84-.74-6.51,5.81-8.01,7.92s-1.45-5.95-1.45-5.95h0c-2.38,10.59-2.82,23.34-.32,31.84,3.9,3.33,8.58,3.22,11.82,3.68,5.19,.74,19.76,1.23,22.72,1.23s10.62,3.21,15.99,4.22c1.33,.26,2.7,.29,4.04,.08h0Z"/>
  <path d="M208.26,295.64c-4.14-.39-10.36-.91-14.45-.91-6.61,0-28.2,5.36-31.45,23.75-.4,2.29,1.62,5.67,3.78,5.53,2.16-.13,6.2-2.43,10.93,0,3.93,2.02,9.98-1.27,17.54-2.89,3.78-.81,8.44-.42,12.15,.16,1.16-6.17,3.42-20.01,1.49-25.65Z"/>
  <path class="cls-5" d="M206.77,321.29c1.16-6.17,3.42-20.01,1.49-25.65-4.14-.39-10.36-.91-14.45-.91-6.61,0-28.2,5.36-31.45,23.75-.4,2.29,1.62,5.67,3.78,5.53,.86-.05,2.03-.45,3.42-.76,3.97-.91,10.58-2.91,12.08-2.91s7.32,6.71,13.84,6.71c3.96,0,9.51-3.89,12.49-4.36l-1.2-1.41Z"/>
  <path class="cls-5" d="M207.97,322.7l-1.2-1.41c.11-.56,.22-1.19,.34-1.87-.56,.17-1.16,.34-1.82,.52-5.39,1.44-19.29,1.44-20.96-1.44s-1.82-1.14-3.65-2.66c-1.82-1.52-5.01-7.44-2.28-12.3,2.73-4.86,13.74-7.82,17.7-8.76-.82-.03-1.59-.04-2.3-.04-6.61,0-28.2,5.36-31.45,23.75-.4,2.29,1.62,5.67,3.78,5.53,.86-.05,2.03-.45,3.42-.76,3.97-.91,10.58-2.91,12.08-2.91s7.32,6.71,13.84,6.71c3.96,0,9.51-3.89,12.49-4.36Z"/>
  <path class="cls-5" d="M177.76,316.98c-1.11-.1-6.36,1.05-7.28-3.74-1.59-8.38,6.14-13.42,6.15-13.43-6.56,3.65-12.66,9.56-14.27,18.67-.4,2.29,1.62,5.67,3.78,5.53,.86-.05,2.03-.45,3.42-.76,3.97-.91,10.58-2.91,12.08-2.91-2.77-1.71-2.77-3.26-3.88-3.36Z"/>
  <path class="cls-1" d="M403.55,328.85c.04,4.79-3.8,8.7-8.58,8.75H212.8c-4.79-.05-8.63-3.96-8.58-8.75l-3.7-109.13c0-4.92,3.99-8.9,8.9-8.9h188.92c4.92,0,8.9,3.99,8.9,8.9h0s-3.7,109.13-3.7,109.13Z"/>
  <path class="cls-1" d="M398.34,210.82h-43.04l-117.43,126.78h157.09c4.79-.05,8.63-3.96,8.58-8.75l3.7-109.13c0-4.92-3.99-8.9-8.9-8.9h0Z"/>
  <path class="cls-1" d="M403.55,321.1c.04,4.79-3.8,8.7-8.58,8.75H212.8c-4.79-.05-8.63-3.96-8.58-8.75v7.75c-.05,4.79,3.8,8.7,8.58,8.75h182.16c4.79-.05,8.63-3.96,8.58-8.75v-7.75Z"/>
</svg>